<svg xmlns="http://www.w3.org/2000/svg" viewBox="0 0 400 300"><g data-name="#186_marketing_flatline"><path d="M197.34 242.36c-69.42 0-125.9-39.16-125.9-87.28s56.48-87.29 125.9-87.29S323.25 107 323.25 155.08c0 14.87-5.5 29.55-15.89 42.47 1.36 18.87 2.89 41.45 2.91 41.68a.49.49 0 01-.36.51.5.5 0 01-.58-.24l-15.14-28.64c-24.02 20.02-59.27 31.5-96.85 31.5zm0-173.57c-68.87 0-124.9 38.71-124.9 86.29s56 86.28 124.9 86.28c37.59 0 72.83-11.54 96.68-31.67a.57.57 0 01.42-.11.52.52 0 01.35.26L309.11 237c-.43-6.32-1.65-24.18-2.77-39.52a.49.49 0 01.11-.35c10.34-12.78 15.8-27.3 15.8-42 0-47.63-56.03-86.34-124.91-86.34z" fill="#d1d3d4"/><path d="M113.51 63.61s2.32-4.28 6-10.19c0 0 11.82 8.83 11.72 8.34s-17.72 1.85-17.72 1.85z" fill="#231f20"/><path d="M113.51 64.11a.5.5 0 01-.44-.74s2.37-4.36 6.05-10.22a.53.53 0 01.33-.22.49.49 0 01.39.09c4.1 3.06 10.85 8 11.54 8.28.33.08.35.21.38.36a.53.53 0 01-.23.54c-.1.06-.19.12-.48 0-1.11-.15-11.26 1.08-17.48 1.91zm6.17-10c-2.56 4.09-4.43 7.36-5.26 8.84 8.57-1.12 12.87-1.59 15-1.71-1.51-1.02-4.37-3.09-9.74-7.1zM270.12 241.96l5.9-9.84-8.16-7.38 2.26 17.22z" fill="#231f20"/><path d="M270.12 242.46H270a.48.48 0 01-.39-.43l-2.27-17.21a.5.5 0 01.27-.51.48.48 0 01.56.07l8.17 7.38a.5.5 0 01.09.63l-5.9 9.84a.5.5 0 01-.41.23zM268.53 226l1.9 14.45 4.95-8.25z" fill="#231f20"/><path d="M266.3 244l-95 13.53a8.28 8.28 0 01-9-5.83L113.17 67.83c-1-3.81 1.43-7.16 5.46-7.49l96.86-7.81a8.57 8.57 0 018.63 6.12l47.14 177.79a5.92 5.92 0 01-4.96 7.56z" fill="#231f20"/><path d="M170.25 258.14a8.82 8.82 0 01-8.41-6.28L112.69 68a6.33 6.33 0 01.86-5.4 6.67 6.67 0 015-2.72l96.9-7.88a9.07 9.07 0 019.15 6.5l47.14 177.78a6.56 6.56 0 01-.81 5.4 6.43 6.43 0 01-4.56 2.81l-95 13.54a8.74 8.74 0 01-1.12.11zM216.08 53h-.55l-96.86 7.81a5.69 5.69 0 00-4.31 2.3 5.41 5.41 0 00-.71 4.57l49.16 183.92a7.77 7.77 0 008.44 5.47l95-13.54a5.48 5.48 0 003.87-2.37 5.63 5.63 0 00.68-4.59L223.63 58.78a8.07 8.07 0 00-7.55-5.78z" fill="#231f20"/><path d="M272.48 233.88l-95 13.53a8.26 8.26 0 01-9-5.83l-49.13-183.9c-1-3.81 1.43-7.16 5.46-7.49l96.87-7.81a8.56 8.56 0 018.62 6.12l47.14 177.79a5.92 5.92 0 01-4.96 7.59z" fill="#fff"/><path d="M176.43 248a8.83 8.83 0 01-8.41-6.28L118.87 57.81a6.36 6.36 0 01.86-5.4 6.7 6.7 0 015-2.72l96.87-7.81a9.07 9.07 0 019.14 6.5l47.15 177.78a6.6 6.6 0 01-.81 5.4 6.45 6.45 0 01-4.57 2.81l-95 13.54a8.74 8.74 0 01-1.08.09zm45.83-205.14h-.54l-96.87 7.81a5.67 5.67 0 00-4.3 2.3 5.37 5.37 0 00-.72 4.57L169 241.45a7.78 7.78 0 008.44 5.47l95-13.54a5.48 5.48 0 003.87-2.37 5.59 5.59 0 00.68-4.59L229.82 48.63a8.08 8.08 0 00-7.56-5.77zm50.22 191z" fill="#231f20"/><path fill="#70cdd6" d="M128.73 69.78l99.17-8.59 38.05 143.46-97.71 12.99-39.51-147.86z"/><path d="M233.22 232.81l-18.53 2.61a5 5 0 01-5.41-3.56l-1.84-6.86a3.72 3.72 0 013.19-4.75l18.57-2.52a5 5 0 015.34 3.56l1.82 6.85a3.69 3.69 0 01-3.14 4.67z" fill="#fff"/><path d="M214.06 236a5.53 5.53 0 01-5.26-4l-1.8-6.92a4.26 4.26 0 01.54-3.51 4.3 4.3 0 013.08-1.87l18.56-2.51a5.49 5.49 0 015.89 3.92l1.83 6.85a4.2 4.2 0 01-3.56 5.35l-18.53 2.6a4.2 4.2 0 01-.75.09zm15.74-17.82a3.27 3.27 0 00-.54 0l-18.56 2.51a3.36 3.36 0 00-2.38 1.43 3.26 3.26 0 00-.4 2.7l1.84 6.91a4.5 4.5 0 004.86 3.19l18.53-2.6.07.49-.07-.49a3.26 3.26 0 002.33-1.42 3.21 3.21 0 00.4-2.68l-1.82-6.85a4.5 4.5 0 00-4.26-3.23zM158.07 57.45a.5.5 0 010-1l28.33-2.36a.49.49 0 01.54.45.5.5 0 01-.46.54l-28.33 2.37zM190.33 54.75a.5.5 0 010-1l3.76-.32a.5.5 0 01.08 1l-3.75.31z" fill="#e6e7e8"/><path d="M164.21 139a.52.52 0 01-.29-.09.51.51 0 01-.13-.69l44.87-65.51a.5.5 0 01.83.56l-44.87 65.51a.52.52 0 01-.41.22zM200.65 194.37a.52.52 0 01-.29-.09.5.5 0 01-.12-.7l27-38.79a.5.5 0 01.82.57l-27 38.8a.51.51 0 01-.41.21zM193.25 157.62a.51.51 0 01-.28-.09.49.49 0 01-.13-.69l10.55-15.69a.5.5 0 01.69-.14.51.51 0 01.14.7l-10.55 15.69a.52.52 0 01-.42.22zM159.29 113.66l-49.76 4.08a3.83 3.83 0 01-3.78-3.08l-7.33-33.4a2.66 2.66 0 012.32-3.46l49.63-3a3.79 3.79 0 013.61 3l7.45 32.39c.41 1.81-.55 3.34-2.14 3.47z" fill="#fff"/><path d="M150.53 74.8a3.83 3.83 0 013.45 3l7.45 32.39c.41 1.78-.55 3.33-2.14 3.46l-49.76 4.08h-.23a3.86 3.86 0 01-3.55-3.08l-7.33-33.4a2.66 2.66 0 012.32-3.46l49.63-3h.16m0-1h-.22l-49.63 3a3.48 3.48 0 00-2.6 1.37 4 4 0 00-.64 3.31l7.33 33.4a4.85 4.85 0 004.53 3.86h.31l49.76-4.07a3.36 3.36 0 002.44-1.36 4.09 4.09 0 00.59-3.32l-7.4-32.4a4.79 4.79 0 00-4.42-3.78z" fill="#231f20"/><path d="M131.86 103.37a.45.45 0 01-.29-.1l-33-24a.51.51 0 01-.11-.7.49.49 0 01.7-.11l32.61 23.75 20.38-26.93a.5.5 0 01.8.61l-20.68 27.31a.51.51 0 01-.41.17z" fill="#d1d3d4"/><path d="M161 113.15a.51.51 0 01-.28-.09l-24.1-16.44a.49.49 0 01-.13-.69.51.51 0 01.7-.14l24.13 16.45a.5.5 0 01-.28.91zM107.28 117.52a.56.56 0 01-.32-.11.51.51 0 01-.06-.71l16.7-19.89a.5.5 0 01.77.64l-16.7 19.89a.5.5 0 01-.39.18z" fill="#d1d3d4"/><path d="M262.43 68.41l-52 3.4a4.91 4.91 0 00-4.51 6l8.3 31.48a6.52 6.52 0 006.83 5.12l2.48-.24 1 12.18 7.11-13 40.84-2.45a4.85 4.85 0 004.31-6.11l-7.71-31.46a6.54 6.54 0 00-6.65-4.92z" fill="#fff"/><path d="M224.61 126.83h-.1a.49.49 0 01-.4-.44l-1-11.67-2 .18a7 7 0 01-7.37-5.51l-8.29-31.45a5.41 5.41 0 015-6.61l52-3.4a7.07 7.07 0 017.25 5.34l7.71 31.45a5.57 5.57 0 01-.85 4.56 5.33 5.33 0 01-3.9 2.17L232 113.86l-7 12.71a.51.51 0 01-.39.26zm-1-13.18a.47.47 0 01.32.12.5.5 0 01.18.34l.9 10.53 6.31-11.5a.5.5 0 01.41-.26l40.84-2.44a4.37 4.37 0 003.17-1.76 4.61 4.61 0 00.69-3.75l-7.71-31.45a6 6 0 00-6.2-4.57l-52 3.4a4.41 4.41 0 00-4.05 5.38l8.29 31.45a6 6 0 006.31 4.75l2.47-.24zm38.86-45.24z" fill="#231f20"/><path d="M245.81 106.24c-.8-.61-1.57-1.23-2.36-1.82l-6.63-4.87c-1.46-1.08-2.93-2.16-4.29-3.37a15.08 15.08 0 01-3.11-3.66 12.45 12.45 0 01-1.22-2.93 15.23 15.23 0 01-.54-2.72 6.41 6.41 0 014.08-7c3-1.12 6-.49 8.72 1.7a11 11 0 011.69 1.72l.12.13c0-.06 0-.12.08-.17a7.58 7.58 0 013.06-3.4 7.39 7.39 0 014.07-1 8.83 8.83 0 018 6 11.23 11.23 0 01.51 2.73 12.14 12.14 0 010 2.89 9.64 9.64 0 01-1.52 4 24.79 24.79 0 01-2.86 3.53c-1.53 1.61-3.09 3.19-4.61 4.81-1.05 1.11-2.07 2.25-3.1 3.38z" fill="#d1d3d4"/><path d="M167.34 160l-1.55.11-.28-11s-3.78 7.27-6.18 11.47l-48 3.59c-2.6.19-4.4 2.16-4 4.41l6.23 35.42a5.14 5.14 0 005.66 3.88l58-5.71a3.78 3.78 0 003.57-4.63l-8.1-34a5.11 5.11 0 00-5.35-3.54z" fill="#fff"/><path d="M118.68 208.39a5.61 5.61 0 01-5.61-4.32l-6.23-35.42a4 4 0 01.79-3.15 5.11 5.11 0 013.68-1.85l47.69-3.56c2.37-4.18 6-11.16 6-11.23a.5.5 0 01.55-.26.51.51 0 01.39.48l.27 10.46 1-.07a5.67 5.67 0 015.87 3.95l8.09 34a4.09 4.09 0 01-.63 3.39 4.67 4.67 0 01-3.38 1.86l-58 5.71a5.83 5.83 0 01-.48.01zM165.06 151c-1.27 2.41-3.63 6.86-5.29 9.78a.49.49 0 01-.4.25l-48 3.59a4.09 4.09 0 00-3 1.47 2.93 2.93 0 00-.59 2.35l6.22 35.42a4.64 4.64 0 005.12 3.48l58-5.72a3.62 3.62 0 002.66-1.44 3.15 3.15 0 00.47-2.58l-8.09-34a4.62 4.62 0 00-4.83-3.18l-1.54.11a.5.5 0 01-.37-.13.46.46 0 01-.17-.36zm2.28 8.94z" fill="#231f20"/><path fill="#d1d3d4" d="M135.94 197.74l-6.81.64-3.43-17.92 6.73-.57 3.51 17.85z"/><path d="M129.13 198.53a.16.16 0 01-.16-.12l-3.42-17.93a.16.16 0 01.14-.18l6.72-.57a.16.16 0 01.17.13l3.52 17.85a.16.16 0 01-.14.18l-6.82.64zm-3.24-17.93l3.36 17.61 6.51-.61-3.46-17.54zM135.25 181.13s5.51-1.85 7.23-5.18 1-8.84 1.87-9.21a3.71 3.71 0 014.05 1.51c1.2 1.68 1.67 6.78.37 10.27l10.59-1c3.29-.31 4.53 2.51 2.88 3.83 0 0 2.67.09 2.24 2.5s-1.38 2.58-2.83 2.71a2 2 0 011.73 2.06c-.16 1.79-2.35 2.44-2.35 2.44s2.3.81 1.21 2.89-4.66 2.24-13.07 2.51-11.12-1.36-11.12-1.36z" fill="#d1d3d4"/><path d="M147.28 196.68c-6.94 0-9.22-1.35-9.32-1.41a.18.18 0 01-.07-.1l-2.79-14a.16.16 0 01.1-.18c.06 0 5.47-1.87 7.14-5.1 1-1.87 1.16-4.51 1.31-6.44s.22-2.66.64-2.84a3.83 3.83 0 014.24 1.56c1.23 1.72 1.67 6.69.47 10.18 1.31-.13 7.43-.7 10.35-1 2.08-.16 3.25.84 3.62 1.76a2 2 0 01-.37 2.12 2.69 2.69 0 011.66.85 2.11 2.11 0 01.37 1.79c-.37 2.08-1.11 2.57-2.25 2.75a1.91 1.91 0 011.16 2 3.14 3.14 0 01-2.1 2.44 2.45 2.45 0 011.13 1.18 2.07 2.07 0 01-.19 1.77c-1.16 2.21-4.93 2.33-13.2 2.6zm-9.09-1.68c.43.22 3.32 1.56 11 1.31 8.14-.27 11.86-.39 12.93-2.43a1.83 1.83 0 00.18-1.52 2.36 2.36 0 00-1.3-1.15.16.16 0 010-.3s2.08-.64 2.23-2.31a1.78 1.78 0 00-1.59-1.89.15.15 0 01-.13-.16.15.15 0 01.14-.15c1.36-.12 2.26-.2 2.68-2.57a1.82 1.82 0 00-.3-1.54 2.7 2.7 0 00-1.79-.78.15.15 0 01-.14-.11.16.16 0 010-.17 1.69 1.69 0 00.54-2c-.33-.82-1.4-1.74-3.31-1.56-3.25.27-10.51 1-10.58 1a.14.14 0 01-.14-.06.16.16 0 010-.15c1.24-3.35.84-8.45-.35-10.12a3.58 3.58 0 00-3.86-1.46c-.27.12-.37 1.37-.46 2.58-.14 2-.35 4.64-1.34 6.56-1.61 3.1-6.32 4.91-7.19 5.22z" fill="#d1d3d4"/><path d="M278.6 191.74l-49.08 4.75a7.8 7.8 0 01-8-5.92l-7.18-29.25c-.9-3.67 1.23-7 4.76-7.38l49.28-5.36a7.83 7.83 0 018.18 6l7 29.81a5.74 5.74 0 01-4.96 7.35z" fill="#fff"/><path d="M228.9 197a8.41 8.41 0 01-7.84-6.33l-7.17-29.26a6.72 6.72 0 01.9-5.48 5.92 5.92 0 014.29-2.51l49.27-5.36a8.36 8.36 0 018.73 6.41l7 29.81a6.59 6.59 0 01-1 5.42 6.13 6.13 0 01-4.46 2.52L229.57 197h-.67zm40.26-48a5.58 5.58 0 00-.7 0l-49.27 5.35a5 5 0 00-3.58 2.09 5.68 5.68 0 00-.75 4.68l7.14 29.33a7.32 7.32 0 007.43 5.55l49.08-4.75a5.17 5.17 0 003.75-2.11 5.61 5.61 0 00.8-4.61l-7-29.81a7.42 7.42 0 00-6.9-5.72zm9.44 42.7z" fill="#231f20"/><path d="M263.05 172.27L245.44 186c-1.26 1-3.31.08-3.73-1.63l-5.62-23.22a2 2 0 012.78-2.35l23.24 9.47c1.73.73 2.26 2.97.94 4zM296 149a.47.47 0 01-.25-.07.5.5 0 01-.21-.61l4.36-11.65c-5.7-4.25-8.95-10.24-8.95-16.5 0-12.38 12.47-22.44 27.8-22.44s27.8 10.06 27.8 22.44-12.47 22.45-27.8 22.45a32.88 32.88 0 01-14.23-3.17l-8.14 9.38a.52.52 0 01-.38.17zm22.75-50.27c-14.78 0-26.8 9.62-26.8 21.44 0 6.05 3.22 11.85 8.84 15.91a.52.52 0 01.18.58l-3.53 9.42 6.58-7.57a.49.49 0 01.6-.12 31.8 31.8 0 0014.13 3.23c14.77 0 26.8-9.62 26.8-21.45s-12.07-21.4-26.84-21.4zM91.48 175a.5.5 0 01-.31-.1 87.75 87.75 0 01-9.33-8.37h-1.2c-15 0-27.15-8.06-27.15-18s12.18-18 27.15-18 27.14 8.06 27.14 18c0 7.36-6.88 14-17.17 16.73L92 174.4a.48.48 0 01-.24.5.47.47 0 01-.28.1zM82 165.5a.48.48 0 01.36.15 88.71 88.71 0 008.4 7.66l-1.2-8.31a.49.49 0 01.37-.56c10.08-2.5 16.85-8.88 16.85-15.87 0-9.37-11.73-17-26.14-17s-26.15 7.61-26.15 17 11.73 17 26.15 17h1.38z" fill="#d1d3d4"/></g></svg>
