<svg width="24" height="24" viewBox="0 0 24 24" fill="none" xmlns="http://www.w3.org/2000/svg">
<path fill-rule="evenodd" clip-rule="evenodd" d="M12 0C18.6 0 24 5.4 24 12C24 18.6 18.6 24 12 24C5.4 24 0 18.6 0 12C0 5.4 5.4 0 12 0ZM12 1.5C6.225 1.5 1.5 6.225 1.5 12C1.5 17.775 6.225 22.5 12 22.5C17.775 22.5 22.5 17.775 22.5 12C22.5 6.225 17.775 1.5 12 1.5ZM13.425 6.375C14.175 6.375 14.8125 6.4125 15 6.45V8.25H13.9125C13.05 8.25 12.9 8.6625 12.9 9.225V10.5H14.925L14.6625 12.4875H12.9V17.625H10.7625V12.4875H9V10.5H10.8V9C10.8 7.3125 11.85 6.375 13.425 6.375Z" fill="#3F3B3B"/>
</svg>
