<svg width="24" height="24" viewBox="0 0 24 24" fill="none" xmlns="http://www.w3.org/2000/svg">
<path fill-rule="evenodd" clip-rule="evenodd" d="M12 0C5.4 0 0 5.4 0 12C0 18.6 5.4 24 12 24C18.6 24 24 18.6 24 12C24 5.4 18.6 0 12 0ZM12 22.5C6.225 22.5 1.5 17.775 1.5 12C1.5 6.225 6.225 1.5 12 1.5C17.775 1.5 22.5 6.225 22.5 12C22.5 17.775 17.775 22.5 12 22.5ZM15.975 5.9625C16.4625 6.15 16.8375 6.45 17.2125 6.7875C17.5875 7.125 17.85 7.5375 18.0375 8.025C18.225 8.5125 18.3 9 18.3375 9.6375C18.375 10.275 18.375 10.4625 18.375 12C18.375 13.5375 18.375 13.725 18.3375 14.3625C18.3375 15 18.225 15.4875 18.0375 15.975C17.85 16.4625 17.55 16.8375 17.2125 17.2125C16.875 17.5875 16.4625 17.85 15.975 18.0375C15.4875 18.225 15 18.3 14.3625 18.3375C13.725 18.375 13.5375 18.375 12 18.375C10.4625 18.375 10.275 18.375 9.6375 18.3375C9 18.3375 8.5125 18.225 8.025 18.0375C7.5375 17.85 7.1625 17.55 6.7875 17.2125C6.4125 16.875 6.15 16.4625 5.9625 15.975C5.775 15.4875 5.7 15 5.6625 14.3625C5.625 13.725 5.625 13.5375 5.625 12C5.625 10.4625 5.625 10.275 5.6625 9.6375C5.6625 9 5.775 8.5125 5.9625 8.025C6.15 7.5375 6.45 7.1625 6.7875 6.7875C7.125 6.4125 7.5375 6.15 8.025 5.9625C8.5125 5.775 9 5.7 9.6375 5.6625C10.275 5.625 10.4625 5.625 12 5.625C13.5375 5.625 13.725 5.625 14.3625 5.6625C15 5.6625 15.4875 5.775 15.975 5.9625ZM16.6125 15.4125C16.725 15.1875 16.8 14.8875 16.8375 14.2875C16.875 13.6875 16.875 13.5 16.875 12V9.75C16.8399 9.18899 16.7393 8.89025 16.6651 8.66987L16.65 8.625C16.5375 8.325 16.3875 8.1 16.1625 7.875C15.9375 7.65 15.7125 7.5 15.4125 7.3875C15.1875 7.275 14.8875 7.2 14.2875 7.1625C13.6875 7.125 13.5 7.125 12 7.125H9.75C9.18899 7.16006 8.89025 7.2607 8.66987 7.33494L8.625 7.35C8.325 7.4625 8.1 7.6125 7.875 7.8375C7.65 8.0625 7.5 8.2875 7.3875 8.5875C7.275 8.8125 7.2 9.1125 7.1625 9.7125C7.125 10.3125 7.125 10.5 7.125 12V14.25C7.16006 14.811 7.2607 15.1097 7.33494 15.3301L7.35 15.375C7.4625 15.675 7.6125 15.9 7.8375 16.125C8.0625 16.35 8.2875 16.5 8.5875 16.6125C8.8125 16.725 9.1125 16.8 9.7125 16.8375C10.3125 16.875 10.5 16.875 12 16.875H14.25C14.811 16.8399 15.1097 16.7393 15.3301 16.6651L15.375 16.65C15.675 16.5375 15.9 16.3875 16.125 16.1625C16.35 15.9375 16.5 15.7125 16.6125 15.4125ZM15.9 8.8125C15.9 9.206 15.581 9.525 15.1875 9.525C14.794 9.525 14.475 9.206 14.475 8.8125C14.475 8.419 14.794 8.1 15.1875 8.1C15.581 8.1 15.9 8.419 15.9 8.8125ZM12 8.7C10.1625 8.7 8.7 10.1625 8.7 12C8.7 13.8375 10.1625 15.3 12 15.3C13.8375 15.3 15.3 13.8375 15.3 12C15.3 10.1625 13.8375 8.7 12 8.7ZM12 13.8C11.025 13.8 10.2 12.975 10.2 12C10.2 11.025 11.025 10.2 12 10.2C12.975 10.2 13.8 11.025 13.8 12C13.8 12.975 12.975 13.8 12 13.8Z" fill="#3F3B3B"/>
</svg>
